<svg xmlns="http://www.w3.org/2000/svg" width="128" height="128" viewBox="0 0 128 128">
  <defs>
    <style>
      .cls-1 {
        fill: #fff;
        stroke: #fff;
        stroke-width: 1px;
        fill-rule: evenodd;
      }
    </style>
  </defs>
  <path class="cls-1" d="M11,7H117a4,4,0,0,1,4,4v2a4,4,0,0,1-4,4H11a4,4,0,0,1-4-4V11A4,4,0,0,1,11,7Zm0,0H117a4,4,0,0,1,4,4v2a4,4,0,0,1-4,4H11a4,4,0,0,1-4-4V11A4,4,0,0,1,11,7Zm0,0H117a4,4,0,0,1,4,4v2a4,4,0,0,1-4,4H11a4,4,0,0,1-4-4V11A4,4,0,0,1,11,7Z"/>
  <path class="cls-1" d="M11,33H117a4,4,0,0,1,4,4v2a4,4,0,0,1-4,4H11a4,4,0,0,1-4-4V37A4,4,0,0,1,11,33Zm0,0H117a4,4,0,0,1,4,4v2a4,4,0,0,1-4,4H11a4,4,0,0,1-4-4V37A4,4,0,0,1,11,33Zm0,0H117a4,4,0,0,1,4,4v2a4,4,0,0,1-4,4H11a4,4,0,0,1-4-4V37A4,4,0,0,1,11,33Z"/>
  <path class="cls-1" d="M11,59H117a4,4,0,0,1,4,4v2a4,4,0,0,1-4,4H11a4,4,0,0,1-4-4V63A4,4,0,0,1,11,59Zm0,0H117a4,4,0,0,1,4,4v2a4,4,0,0,1-4,4H11a4,4,0,0,1-4-4V63A4,4,0,0,1,11,59Zm0,0H117a4,4,0,0,1,4,4v2a4,4,0,0,1-4,4H11a4,4,0,0,1-4-4V63A4,4,0,0,1,11,59Z"/>
  <path class="cls-1" d="M11,85H117a4,4,0,0,1,4,4v2a4,4,0,0,1-4,4H11a4,4,0,0,1-4-4V89A4,4,0,0,1,11,85Zm0,0H117a4,4,0,0,1,4,4v2a4,4,0,0,1-4,4H11a4,4,0,0,1-4-4V89A4,4,0,0,1,11,85Zm0,0H117a4,4,0,0,1,4,4v2a4,4,0,0,1-4,4H11a4,4,0,0,1-4-4V89A4,4,0,0,1,11,85Z"/>
  <path class="cls-1" d="M11,111H117a4,4,0,0,1,4,4v2a4,4,0,0,1-4,4H11a4,4,0,0,1-4-4v-2A4,4,0,0,1,11,111Zm0,0H117a4,4,0,0,1,4,4v2a4,4,0,0,1-4,4H11a4,4,0,0,1-4-4v-2A4,4,0,0,1,11,111Zm0,0H117a4,4,0,0,1,4,4v2a4,4,0,0,1-4,4H11a4,4,0,0,1-4-4v-2A4,4,0,0,1,11,111Z"/>
</svg>
