<svg xmlns="http://www.w3.org/2000/svg" width="128" height="128" viewBox="0 0 128 128">
  <defs>
    <style>
      .cls-1 {
        fill: #fff;
        stroke: #fff;
        stroke-width: 1px;
        fill-rule: nonzero;
      }
    </style>
  </defs>
  <path class="cls-1" d="M10,6H55a4,4,0,0,1,4,4V55a4,4,0,0,1-4,4H10a4,4,0,0,1-4-4V10A4,4,0,0,1,10,6Zm0,0H55a4,4,0,0,1,4,4V55a4,4,0,0,1-4,4H10a4,4,0,0,1-4-4V10A4,4,0,0,1,10,6Z"/>
  <path class="cls-1" d="M10,69H55a4,4,0,0,1,4,4v45a4,4,0,0,1-4,4H10a4,4,0,0,1-4-4V73A4,4,0,0,1,10,69Zm0,0H55a4,4,0,0,1,4,4v45a4,4,0,0,1-4,4H10a4,4,0,0,1-4-4V73A4,4,0,0,1,10,69Zm0,0H55a4,4,0,0,1,4,4v45a4,4,0,0,1-4,4H10a4,4,0,0,1-4-4V73A4,4,0,0,1,10,69Zm0,0H55a4,4,0,0,1,4,4v45a4,4,0,0,1-4,4H10a4,4,0,0,1-4-4V73A4,4,0,0,1,10,69Zm0,0H55a4,4,0,0,1,4,4v45a4,4,0,0,1-4,4H10a4,4,0,0,1-4-4V73A4,4,0,0,1,10,69Zm0,0H55a4,4,0,0,1,4,4v45a4,4,0,0,1-4,4H10a4,4,0,0,1-4-4V73A4,4,0,0,1,10,69Z"/>
  <path class="cls-1" d="M73,69h45a4,4,0,0,1,4,4v45a4,4,0,0,1-4,4H73a4,4,0,0,1-4-4V73A4,4,0,0,1,73,69Zm0,0h45a4,4,0,0,1,4,4v45a4,4,0,0,1-4,4H73a4,4,0,0,1-4-4V73A4,4,0,0,1,73,69Zm0,0h45a4,4,0,0,1,4,4v45a4,4,0,0,1-4,4H73a4,4,0,0,1-4-4V73A4,4,0,0,1,73,69Zm0,0h45a4,4,0,0,1,4,4v45a4,4,0,0,1-4,4H73a4,4,0,0,1-4-4V73A4,4,0,0,1,73,69Zm0,0h45a4,4,0,0,1,4,4v45a4,4,0,0,1-4,4H73a4,4,0,0,1-4-4V73A4,4,0,0,1,73,69Zm0,0h45a4,4,0,0,1,4,4v45a4,4,0,0,1-4,4H73a4,4,0,0,1-4-4V73A4,4,0,0,1,73,69Z"/>
  <path class="cls-1" d="M73,6h45a4,4,0,0,1,4,4V55a4,4,0,0,1-4,4H73a4,4,0,0,1-4-4V10A4,4,0,0,1,73,6Zm0,0h45a4,4,0,0,1,4,4V55a4,4,0,0,1-4,4H73a4,4,0,0,1-4-4V10A4,4,0,0,1,73,6Z"/>
</svg>
